<mxfile host="app.diagrams.net" agent="Mozilla/5.0 (X11; Linux x86_64) AppleWebKit/537.36 (KHTML, like Gecko) Chrome/135.0.0.0 Safari/537.36" version="26.2.13">
  <diagram name="Page-1" id="NRdbINJA7sgbLlRu02YE">
    <mxGraphModel dx="874" dy="690" grid="1" gridSize="10" guides="1" tooltips="1" connect="1" arrows="1" fold="1" page="1" pageScale="1" pageWidth="850" pageHeight="1100" math="0" shadow="0">
      <root>
        <mxCell id="0" />
        <mxCell id="1" parent="0" />
        <mxCell id="f3wUn5M4kA_OvYZ8MYNp-7" value="Client" style="text;html=1;align=center;verticalAlign=middle;whiteSpace=wrap;rounded=0;" vertex="1" parent="1">
          <mxGeometry x="10" y="20" width="60" height="30" as="geometry" />
        </mxCell>
        <mxCell id="f3wUn5M4kA_OvYZ8MYNp-8" value="" style="shape=umlLifeline;perimeter=lifelinePerimeter;whiteSpace=wrap;html=1;container=1;dropTarget=0;collapsible=0;recursiveResize=0;outlineConnect=0;portConstraint=eastwest;newEdgeStyle={&quot;curved&quot;:0,&quot;rounded&quot;:0};participant=umlEntity;" vertex="1" parent="1">
          <mxGeometry x="360" y="140" width="40" height="480" as="geometry" />
        </mxCell>
        <mxCell id="f3wUn5M4kA_OvYZ8MYNp-32" value="" style="html=1;points=[[0,0,0,0,5],[0,1,0,0,-5],[1,0,0,0,5],[1,1,0,0,-5]];perimeter=orthogonalPerimeter;outlineConnect=0;targetShapes=umlLifeline;portConstraint=eastwest;newEdgeStyle={&quot;curved&quot;:0,&quot;rounded&quot;:0};" vertex="1" parent="f3wUn5M4kA_OvYZ8MYNp-8">
          <mxGeometry x="15" y="60" width="10" height="400" as="geometry" />
        </mxCell>
        <mxCell id="f3wUn5M4kA_OvYZ8MYNp-9" value="" style="shape=umlLifeline;perimeter=lifelinePerimeter;whiteSpace=wrap;html=1;container=1;dropTarget=0;collapsible=0;recursiveResize=0;outlineConnect=0;portConstraint=eastwest;newEdgeStyle={&quot;curved&quot;:0,&quot;rounded&quot;:0};participant=umlEntity;" vertex="1" parent="1">
          <mxGeometry x="520" y="220" width="40" height="400" as="geometry" />
        </mxCell>
        <mxCell id="f3wUn5M4kA_OvYZ8MYNp-33" value="" style="html=1;points=[[0,0,0,0,5],[0,1,0,0,-5],[1,0,0,0,5],[1,1,0,0,-5]];perimeter=orthogonalPerimeter;outlineConnect=0;targetShapes=umlLifeline;portConstraint=eastwest;newEdgeStyle={&quot;curved&quot;:0,&quot;rounded&quot;:0};" vertex="1" parent="f3wUn5M4kA_OvYZ8MYNp-9">
          <mxGeometry x="15" y="50" width="10" height="330" as="geometry" />
        </mxCell>
        <mxCell id="f3wUn5M4kA_OvYZ8MYNp-16" value="Server" style="text;html=1;align=center;verticalAlign=middle;whiteSpace=wrap;rounded=0;" vertex="1" parent="1">
          <mxGeometry x="170" y="30" width="60" height="30" as="geometry" />
        </mxCell>
        <mxCell id="f3wUn5M4kA_OvYZ8MYNp-17" value="RX Thread" style="text;html=1;align=center;verticalAlign=middle;whiteSpace=wrap;rounded=0;" vertex="1" parent="1">
          <mxGeometry x="350" y="110" width="60" height="30" as="geometry" />
        </mxCell>
        <mxCell id="f3wUn5M4kA_OvYZ8MYNp-18" value="TX Thread" style="text;html=1;align=center;verticalAlign=middle;whiteSpace=wrap;rounded=0;" vertex="1" parent="1">
          <mxGeometry x="510" y="190" width="60" height="30" as="geometry" />
        </mxCell>
        <mxCell id="f3wUn5M4kA_OvYZ8MYNp-21" value="Connect()" style="html=1;verticalAlign=bottom;endArrow=block;curved=0;rounded=0;" edge="1" parent="1" target="f3wUn5M4kA_OvYZ8MYNp-31">
          <mxGeometry width="80" relative="1" as="geometry">
            <mxPoint x="40" y="130" as="sourcePoint" />
            <mxPoint x="180" y="130" as="targetPoint" />
          </mxGeometry>
        </mxCell>
        <mxCell id="f3wUn5M4kA_OvYZ8MYNp-22" value="Create Rx Thread" style="html=1;verticalAlign=bottom;endArrow=block;curved=0;rounded=0;dashed=1;" edge="1" parent="1">
          <mxGeometry width="80" relative="1" as="geometry">
            <mxPoint x="200" y="160" as="sourcePoint" />
            <mxPoint x="360" y="160" as="targetPoint" />
          </mxGeometry>
        </mxCell>
        <mxCell id="f3wUn5M4kA_OvYZ8MYNp-23" value="Create Tx Thread" style="html=1;verticalAlign=bottom;endArrow=block;curved=0;rounded=0;dashed=1;" edge="1" parent="1" source="f3wUn5M4kA_OvYZ8MYNp-5">
          <mxGeometry width="80" relative="1" as="geometry">
            <mxPoint x="210" y="240" as="sourcePoint" />
            <mxPoint x="520" y="240" as="targetPoint" />
          </mxGeometry>
        </mxCell>
        <mxCell id="f3wUn5M4kA_OvYZ8MYNp-25" value="&lt;font style=&quot;font-size: 11px;&quot;&gt;Process Request&lt;/font&gt;" style="ellipse;shape=umlControl;whiteSpace=wrap;html=1;" vertex="1" parent="1">
          <mxGeometry x="352" y="350" width="70" height="80" as="geometry" />
        </mxCell>
        <mxCell id="f3wUn5M4kA_OvYZ8MYNp-27" value="Prepare Response" style="html=1;verticalAlign=bottom;endArrow=block;curved=0;rounded=0;" edge="1" parent="1">
          <mxGeometry width="80" relative="1" as="geometry">
            <mxPoint x="385.0000000000001" y="491" as="sourcePoint" />
            <mxPoint x="535" y="491" as="targetPoint" />
          </mxGeometry>
        </mxCell>
        <mxCell id="f3wUn5M4kA_OvYZ8MYNp-6" value="" style="shape=umlLifeline;perimeter=lifelinePerimeter;whiteSpace=wrap;html=1;container=1;dropTarget=0;collapsible=0;recursiveResize=0;outlineConnect=0;portConstraint=eastwest;newEdgeStyle={&quot;curved&quot;:0,&quot;rounded&quot;:0};participant=umlActor;" vertex="1" parent="1">
          <mxGeometry x="30" y="60" width="20" height="560" as="geometry" />
        </mxCell>
        <mxCell id="f3wUn5M4kA_OvYZ8MYNp-30" value="" style="html=1;points=[[0,0,0,0,5],[0,1,0,0,-5],[1,0,0,0,5],[1,1,0,0,-5]];perimeter=orthogonalPerimeter;outlineConnect=0;targetShapes=umlLifeline;portConstraint=eastwest;newEdgeStyle={&quot;curved&quot;:0,&quot;rounded&quot;:0};" vertex="1" parent="f3wUn5M4kA_OvYZ8MYNp-6">
          <mxGeometry x="5" y="50" width="10" height="480" as="geometry" />
        </mxCell>
        <mxCell id="f3wUn5M4kA_OvYZ8MYNp-5" value="" style="shape=umlLifeline;perimeter=lifelinePerimeter;whiteSpace=wrap;html=1;container=1;dropTarget=0;collapsible=0;recursiveResize=0;outlineConnect=0;portConstraint=eastwest;newEdgeStyle={&quot;curved&quot;:0,&quot;rounded&quot;:0};participant=umlEntity;" vertex="1" parent="1">
          <mxGeometry x="180" y="60" width="40" height="560" as="geometry" />
        </mxCell>
        <mxCell id="f3wUn5M4kA_OvYZ8MYNp-31" value="" style="html=1;points=[[0,0,0,0,5],[0,1,0,0,-5],[1,0,0,0,5],[1,1,0,0,-5]];perimeter=orthogonalPerimeter;outlineConnect=0;targetShapes=umlLifeline;portConstraint=eastwest;newEdgeStyle={&quot;curved&quot;:0,&quot;rounded&quot;:0};" vertex="1" parent="f3wUn5M4kA_OvYZ8MYNp-5">
          <mxGeometry x="15" y="60" width="10" height="480" as="geometry" />
        </mxCell>
        <mxCell id="f3wUn5M4kA_OvYZ8MYNp-29" value="Send Request" style="html=1;verticalAlign=bottom;endArrow=block;curved=0;rounded=0;" edge="1" parent="1" target="f3wUn5M4kA_OvYZ8MYNp-32">
          <mxGeometry width="80" relative="1" as="geometry">
            <mxPoint x="40" y="300" as="sourcePoint" />
            <mxPoint x="360" y="300" as="targetPoint" />
          </mxGeometry>
        </mxCell>
        <mxCell id="f3wUn5M4kA_OvYZ8MYNp-28" value="Send Response" style="html=1;verticalAlign=bottom;endArrow=block;curved=0;rounded=0;" edge="1" parent="1">
          <mxGeometry width="80" relative="1" as="geometry">
            <mxPoint x="535" y="549" as="sourcePoint" />
            <mxPoint x="45" y="549" as="targetPoint" />
          </mxGeometry>
        </mxCell>
      </root>
    </mxGraphModel>
  </diagram>
</mxfile>
